<svg xmlns:rdf="http://www.w3.org/1999/02/22-rdf-syntax-ns#" xmlns="http://www.w3.org/2000/svg" version="1.1" xmlns:cc="http://creativecommons.org/ns#" xmlns:dc="http://purl.org/dc/elements/1.1/" viewBox="0 0 200 500">
 <g stroke-linejoin="round" fill-rule="evenodd" transform="translate(0 -552.36)" stroke="#45d5bd" stroke-linecap="round" stroke-width="38.796" fill="#f9f9f9">
  <path d="m17.09 624.18c-36.288-20.84-63.523 34.13-33.071 76.85 60.008 36.82 153.33 55.18 168.36 21.08 15.03-34.11-99.001-77.09-135.29-97.93z"/>
  <path d="m-9.4452 708.5c-49.702 9.67-57.511 49.02-27.059 91.73 46.479 31.86 190.71 49.8 189.41-42.14-12.63-35.37-50.09 26.64-162.36-49.59z"/>
  <path d="m-24.267 817.08c-42.693 23.106-33.714 62.275 12.62 93.83 56.891 16.83 199.87 2.9273 160.51-83.108-26.54-29.677-36.019 29.244-173.13-10.722z"/>
  <path d="m-22.985 917.49s-5.7728 76.934 72.75 65.319 73.318-73.191 73.318-73.191c-49.19 15.811-96.878 15.195-146.07 7.872z"/>
 </g>
</svg>
