<svg xmlns:rdf="http://www.w3.org/1999/02/22-rdf-syntax-ns#" xmlns="http://www.w3.org/2000/svg" version="1.1" xmlns:cc="http://creativecommons.org/ns#" xmlns:dc="http://purl.org/dc/elements/1.1/" viewBox="0 0 200 500">
 <g stroke-linejoin="round" fill-rule="evenodd" transform="translate(0 -552.36)" stroke="#45d5bd" stroke-linecap="round" stroke-width="38.796" fill="#f9f9f9">
  <path d="m212.55 624.18c36.289-20.841 63.523 34.136 33.072 76.855-60.01 36.81-153.34 55.17-168.37 21.07-15.026-34.11 99.01-77.09 135.3-97.93z"/>
  <path d="m239.08 708.5c49.702 9.6712 57.51 49.011 27.059 91.73-46.479 31.86-190.71 49.801-189.41-42.146 12.63-35.372 50.09 26.641 162.35-49.584z"/>
  <path d="m253.9 817.08c42.693 23.106 33.714 62.275-12.62 93.83-56.89 16.83-199.87 2.9273-160.51-83.108 26.54-29.677 36.019 29.244 173.13-10.722z"/>
  <path d="m252.62 917.49s5.7728 76.934-72.75 65.319-73.318-73.191-73.318-73.191c49.19 15.811 96.878 15.195 146.07 7.872z"/>
 </g>
</svg>
